<svg xmlns="http://www.w3.org/2000/svg" width="167.813" height="152.946" viewBox="0 0 167.813 152.946"><g transform="translate(-1570 -1318)"><ellipse cx="31.657" cy="30.704" rx="31.657" ry="30.704" transform="translate(1666.116 1318)" fill="#75b9e2"/><ellipse cx="31.848" cy="32.42" rx="31.848" ry="32.42" transform="translate(1570 1324.484)" fill="#75b9e2"/><g transform="translate(1592.279 1361.631)" fill="#0a5e93"><path d="M 54.86191940307617 95.36376190185547 C 47.96566772460938 95.36376190185547 41.30132293701172 95.31324005126953 35.57503128051758 94.70321655273438 C 29.5828857421875 94.06487274169922 25.01639366149902 92.86140441894531 21.20395851135254 90.91577911376953 C 17.01744842529297 88.77925872802734 13.59757614135742 85.63309478759766 10.74888515472412 81.29754638671875 C 7.766175746917725 76.75800323486328 5.288084983825684 70.74958038330078 3.172975778579712 62.92896270751953 C 1.282393932342529 55.93847274780273 1.067266702651978 48.9604377746582 2.533593893051147 42.18867492675781 C 3.916139364242554 35.80376434326172 6.747321128845215 29.76651000976562 10.94848442077637 24.24458312988281 C 16.33041191101074 17.17067337036133 23.79912185668945 11.23216438293457 32.54715728759766 7.071037292480469 C 36.9376106262207 4.982673645019531 41.60422897338867 3.362600803375244 46.4173583984375 2.255836963653564 C 51.3543586730957 1.120582580566406 56.43037414550781 0.5298007130622864 61.50442886352539 0.4999279975891113 C 61.62588500976562 0.499200701713562 61.75384902954102 0.4988189041614532 61.87519454956055 0.4988189041614532 C 66.92581176757812 0.4988189041614532 72.00873565673828 1.109655261039734 76.98277282714844 2.314346075057983 C 81.77299499511719 3.474509716033936 86.44919586181641 5.180946350097656 90.88150024414062 7.386237144470215 C 99.5701904296875 11.70927333831787 107.0731048583984 17.81136512756348 112.5791244506836 25.03285598754883 C 114.6186141967773 27.707763671875 116.3685760498047 30.52325439453125 117.7804107666016 33.40109252929688 C 119.2193756103516 36.3342170715332 120.3190841674805 39.35721969604492 121.0489959716797 42.3861083984375 C 122.5861587524414 48.76485443115234 122.5069198608398 55.12656402587891 120.8134689331055 61.29450988769531 C 118.7535781860352 68.79714965820312 116.1320648193359 74.69652557373047 112.7991790771484 79.32981872558594 C 109.5803375244141 83.80452728271484 105.6456146240234 87.15936279296875 100.7701950073242 89.58602142333984 C 96.24816131591797 91.83676147460938 90.73606872558594 93.36370849609375 83.91892242431641 94.25411224365234 C 78.07330322265625 95.01761627197266 71.15952301025391 95.35810852050781 61.50148391723633 95.35810852050781 C 60.33297729492188 95.35810852050781 59.18521118164062 95.35958099365234 58.05861282348633 95.36101531982422 C 56.97324752807617 95.36240386962891 55.90755844116211 95.36376190185547 54.86191940307617 95.36376190185547 Z" stroke="none"/><path d="M 61.87515640258789 0.9988021850585938 C 61.75481033325195 0.9988021850585938 61.62790298461914 0.9991836547851562 61.50737762451172 0.9998931884765625 C 51.54962921142578 1.058547973632812 41.60961151123047 3.314033508300781 32.76194000244141 7.522544860839844 C 24.08563232421875 11.64954376220703 16.68025207519531 17.53662109375 11.34641265869141 24.54730987548828 C 7.189865112304688 30.01059722900391 4.389213562011719 35.98160171508789 3.022270202636719 42.29447174072266 C 1.573028564453125 48.98734664916992 1.786140441894531 55.88587188720703 3.655647277832031 62.79841995239258 C 5.756683349609375 70.56710815429688 8.213577270507812 76.52841949462891 11.16674041748047 81.02297973632812 C 13.96649932861328 85.28408813476562 17.32402801513672 88.37438201904297 21.43119049072266 90.47042083740234 C 25.18740844726562 92.38734436035156 29.69852447509766 93.57436370849609 35.62792205810547 94.20601654052734 C 41.32979583740234 94.81343841552734 47.97957611083984 94.86374664306641 54.86183166503906 94.86374664306641 C 55.90726470947266 94.86374664306641 56.97275543212891 94.86238098144531 58.05792236328125 94.86100006103516 C 59.18475723266602 94.85956573486328 60.33275604248047 94.85809326171875 61.50148391723633 94.85809326171875 C 71.13703155517578 94.85809326171875 78.03085327148438 94.51891326904297 83.85417175292969 93.75830841064453 C 90.61543273925781 92.87522125244141 96.07581329345703 91.36402130126953 100.5473937988281 89.13838195800781 C 105.3482513427734 86.74884033203125 109.2230834960938 83.44493103027344 112.3932647705078 79.037841796875 C 115.6908645629883 74.45363616943359 118.2874298095703 68.60645294189453 120.3313217163086 61.16212844848633 C 122.0021209716797 55.07663726806641 122.0800476074219 48.79887390136719 120.5629043579102 42.50323867797852 C 119.8415756225586 39.50991058349609 118.7543792724609 36.52159881591797 117.3315200805664 33.62131118774414 C 115.9339904785156 30.77263641357422 114.201286315918 27.98505401611328 112.1815032958984 25.33599853515625 C 106.7216644287109 18.17510986328125 99.27922821044922 12.12296295166016 90.65875244140625 7.833854675292969 C 86.25986480712891 5.64520263671875 81.61899566650391 3.951652526855469 76.86505126953125 2.800270080566406 C 71.92950439453125 1.604911804199219 66.88617706298828 0.9988021850585938 61.87515640258789 0.9988021850585938 M 61.87516403198242 -0.001190185546875 C 98.18571472167969 -0.001190185546875 129.6076507568359 31.15251922607422 121.2956314086914 61.4268913269043 C 112.9555740356445 91.80323791503906 95.42666625976562 95.85809326171875 61.50148391723633 95.85809326171875 C 59.20722961425781 95.85809326171875 56.99285125732422 95.86374664306641 54.86182403564453 95.86374664306641 C 25.48137664794922 95.86374664306641 11.27225494384766 94.79150390625 2.690322875976562 63.05949020385742 C -6.51409912109375 29.02592468261719 25.03603363037109 0.214691162109375 61.50148391723633 -9.1552734375e-05 C 61.62389755249023 -0.0008087158203125 61.75286102294922 -0.001190185546875 61.87516403198242 -0.001190185546875 Z" stroke="none" fill="#aacfd5"/></g><ellipse cx="50.346" cy="49.393" rx="50.346" ry="49.393" transform="translate(1604.708 1372.16)" fill="#f7d1b6"/><path d="M0,.07c20.692-1.3,11.289,15.8,11.289,15.8" transform="matrix(0.602, -0.799, 0.799, 0.602, 1625.053, 1411.085)" fill="none" stroke="#f5562d" stroke-width="3"/><path d="M0,.07c20.692-1.3,11.289,15.8,11.289,15.8" transform="matrix(0.602, -0.799, 0.799, 0.602, 1659.49, 1410.154)" fill="none" stroke="#f5562d" stroke-width="3"/><ellipse cx="8.01" cy="8.772" rx="8.01" ry="8.772" transform="translate(1647.045 1418.693)" fill="#f5562d"/><path d="M4371.195-781.925s37.887-21.97,64.559-22.056" transform="translate(-2705.135 2208.408)" fill="none" stroke="#f5562d" stroke-width="1"/><path d="M0,22.056S37.886.085,64.559,0" transform="translate(1674.344 1407.777) rotate(11)" fill="none" stroke="#f5562d" stroke-width="1"/><path d="M0,22.056S37.886.085,64.559,0" transform="translate(1577.548 1419.877) rotate(11)" fill="none" stroke="#f5562d" stroke-width="1"/><path d="M0,22.056S37.886.085,64.559,0" transform="translate(1580.567 1405.22) rotate(20)" fill="none" stroke="#f5562d" stroke-width="1"/><ellipse cx="27.652" cy="25.936" rx="27.652" ry="25.936" transform="translate(1578.391 1336.689)" fill="#0a5e93"/><ellipse cx="28.415" cy="27.462" rx="28.415" ry="27.462" transform="translate(1670.693 1324.484)" fill="#0a5e93"/><g transform="translate(1656.199 1443.866)" fill="#fff" stroke="#f5562d" stroke-width="3"><ellipse cx="4.958" cy="4.768" rx="4.958" ry="4.768" stroke="none"/><ellipse cx="4.958" cy="4.768" rx="3.458" ry="3.268" fill="none"/></g></g></svg>