<svg xmlns="http://www.w3.org/2000/svg" width="331.743" height="302" viewBox="0 0 331.743 302"><g transform="translate(-2173 -1642.441)"><g transform="translate(2173 1642.643)"><ellipse cx="61.5" cy="62" rx="61.5" ry="62" transform="translate(192 -0.202)" fill="#75b9e2"/><circle cx="62" cy="62" r="62" transform="translate(0 14.798)" fill="#75b9e2"/><path d="M121.847,0c72.882-.429,136.178,62.06,119.509,122.772s-51.7,68.817-119.509,68.817S22.7,194.058,4.3,126.036,48.965.43,121.847,0Z" transform="translate(42.04 84.162)" fill="#0a5e93"/><ellipse cx="100" cy="100.5" rx="100" ry="100.5" transform="translate(64 100.798)" fill="#f7d1b6"/><path d="M0,0C30.5,3.893,39.083,18.931,39.083,18.931" transform="matrix(0.602, -0.799, 0.799, 0.602, 90.632, 171.069)" fill="none" stroke="#e3613d" stroke-width="3"/><path d="M0,18.932C30.5,15.039,39.083,0,39.083,0" transform="matrix(-0.602, -0.799, 0.799, -0.602, 209.002, 180.602)" fill="none" stroke="#e3613d" stroke-width="3"/><g transform="translate(153 202.798)" fill="#f5562d" stroke="#e3613d" stroke-width="3"><circle cx="13" cy="13" r="13" stroke="none"/><circle cx="13" cy="13" r="11.5" fill="none"/></g><path d="M4371.2-759.9s75.721-43.912,129.032-44.083" transform="translate(-4182.762 973.678)" fill="none" stroke="#e3613d" stroke-width="1"/><path d="M0,44.083S75.721.171,129.032,0" transform="translate(204.985 176.393) rotate(11)" fill="none" stroke="#e3613d" stroke-width="1"/><path d="M0,44.083S75.721.171,129.032,0" transform="translate(11.526 200.576) rotate(11)" fill="none" stroke="#e3613d" stroke-width="1"/><path d="M0,44.083S75.721.171,129.032,0" transform="translate(17.564 171.283) rotate(20)" fill="none" stroke="#e3613d" stroke-width="1"/><ellipse cx="52" cy="51.5" rx="52" ry="51.5" transform="translate(15 31.798)" fill="#0a5e93"/><ellipse cx="54" cy="54.5" rx="54" ry="54.5" transform="translate(203 14.798)" fill="#0a5e93"/><g transform="translate(119 172.798)" fill="#f5562d" stroke="#e3613d" stroke-width="1"><ellipse cx="7.5" cy="7" rx="7.5" ry="7" stroke="none"/><ellipse cx="7.5" cy="7" rx="7" ry="6.5" fill="none"/></g><g transform="translate(182 171.798)" fill="#f5562d" stroke="#e3613d" stroke-width="1"><ellipse cx="7" cy="6.5" rx="7" ry="6.5" stroke="none"/><ellipse cx="7" cy="6.5" rx="6.5" ry="6" fill="none"/></g><ellipse cx="2.5" cy="3" rx="2.5" ry="3" transform="translate(126 175.798)" fill="#fff"/><circle cx="3" cy="3" r="3" transform="translate(184 174.798)" fill="#fff"/><g transform="translate(120.68 248.99) rotate(-5)"><path d="M0,.559A60.537,60.537,0,0,0,52.885,0" transform="matrix(0.978, 0.208, -0.208, 0.978, 8.1, 6.486)" fill="none" stroke="#e3613d" stroke-width="3"/><path d="M0,.188A20.357,20.357,0,0,0,17.784,0" transform="translate(0 13.422) rotate(-49)" fill="none" stroke="#e3613d" stroke-width="3"/></g></g></g></svg>