<svg id="Group_107" data-name="Group 107" xmlns="http://www.w3.org/2000/svg" width="17.74" height="26.198" viewBox="0 0 17.74 26.198">
  <path id="Path_22" data-name="Path 22" d="M199.654,436.1a1.088,1.088,0,0,0-1.087,1.087,6.705,6.705,0,0,1-13.41.005,1.07,1.07,0,0,0-.3-.768,1.059,1.059,0,0,0-.771-.324A1.088,1.088,0,0,0,183,437.186a8.873,8.873,0,0,0,7.786,8.8v3.09h-2.839a1.087,1.087,0,1,0,0,2.173H195.8a1.087,1.087,0,1,0,0-2.173h-2.842v-3.09a8.879,8.879,0,0,0,7.786-8.8A1.09,1.09,0,0,0,199.654,436.1Z" transform="translate(-183 -425.049)" fill="#fff"/>
  <path id="Path_23" data-name="Path 23" d="M316.908,43.741a5.415,5.415,0,0,0,5.408-5.408V31.608a5.408,5.408,0,1,0-10.817,0v6.724A5.415,5.415,0,0,0,316.908,43.741Z" transform="translate(-308.036 -26.2)" fill="#fff"/>
</svg>
