<svg id="Group_104" data-name="Group 104" xmlns="http://www.w3.org/2000/svg" width="27.636" height="27.636" viewBox="0 0 27.636 27.636">
  <path id="Path_18" data-name="Path 18" d="M14.718.9A13.818,13.818,0,1,0,28.536,14.718,13.824,13.824,0,0,0,14.718.9Zm0,25.3A11.482,11.482,0,1,1,26.2,14.718,11.494,11.494,0,0,1,14.718,26.2Z" transform="translate(-0.9 -0.9)" fill="#c3c3c3"/>
  <path id="Path_19" data-name="Path 19" d="M39.991,42.233a1.1,1.1,0,0,0,.507.113.935.935,0,0,0,.591-.2l5.685-3.884a1.08,1.08,0,0,0,.45-.872,1.036,1.036,0,0,0-.478-.872L41.06,32.749a1.093,1.093,0,0,0-1.1-.056,1.079,1.079,0,0,0-.563.929v7.655A1.081,1.081,0,0,0,39.991,42.233Z" transform="translate(-28.565 -23.659)" fill="#c3c3c3"/>
</svg>
